<svg xmlns="http://www.w3.org/2000/svg" viewBox="0 0 370.03 69"><path d="M276.32,12.71a21.65,21.65,0,0,0-21.48,21.75c0,11.49,9.84,21.19,21.48,21.19A21.83,21.83,0,0,0,298,34.18,21.83,21.83,0,0,0,276.32,12.71ZM290.77,34c0,8.43-6.31,15-14.37,15A14.68,14.68,0,0,1,262,34.39c0-8.28,6.41-15,14.29-15A14.54,14.54,0,0,1,290.77,34Zm33.78-21.26a21.65,21.65,0,0,0-21.49,21.75c0,11.49,9.84,21.19,21.49,21.19a21.84,21.84,0,0,0,21.63-21.47A21.84,21.84,0,0,0,324.55,12.71ZM339,34c0,8.43-6.31,15-14.37,15a14.68,14.68,0,0,1-14.37-14.61c0-8.28,6.41-15,14.3-15A14.54,14.54,0,0,1,339,34ZM245.48,0a3.58,3.58,0,0,0-3.59,3.57v15a19.86,19.86,0,0,0-14.3-5.9c-12.41,0-22.13,9.4-22.13,21.4s9.72,21.54,22.13,21.54a19.69,19.69,0,0,0,14.3-5.94v1.44a3.59,3.59,0,0,0,7.18,0V3.57A3.58,3.58,0,0,0,245.48,0Zm-3.31,34.25A14.68,14.68,0,0,1,227.59,49c-8.52,0-15-6.31-15-14.68a14.59,14.59,0,0,1,14.88-15A14.79,14.79,0,0,1,242.17,34.25ZM203.85,17a3.34,3.34,0,0,1-3.34,3.33h-6v30.8a3.59,3.59,0,0,1-7.18,0V20.36H182.4a3.33,3.33,0,1,1,0-6.65h4.89V3.58a3.59,3.59,0,0,1,7.18,0V13.71h6A3.34,3.34,0,0,1,203.85,17ZM74.26,51.44V17.34a3.28,3.28,0,0,1,3.28-3.28h0a3.28,3.28,0,0,1,3.29,3.28v34.1a3.29,3.29,0,0,1-3.29,3.29h0A3.28,3.28,0,0,1,74.26,51.44ZM175,31.3V51a3.6,3.6,0,0,1-7.19,0V31.87c0-8.44-3.55-12.55-10.86-12.55-6.82,0-11.22,5.07-11.22,12.91V51a3.6,3.6,0,0,1-7.19,0V3.43a3.43,3.43,0,0,1,6.86,0l0,14c2.67-3,6.71-4.71,11.51-4.71C161.18,12.67,175,14,175,31.3ZM43.61,34.25c0-12.08-9.72-21.54-22.13-21.54A19.46,19.46,0,0,0,7.19,18.66V3.57A3.6,3.6,0,0,0,0,3.57V51.08a3.6,3.6,0,0,0,7.19,0V49.61a19.24,19.24,0,0,0,14.29,6C33.89,55.65,43.61,46.25,43.61,34.25ZM36.43,34c0,8.67-6.32,15-15,15A14.72,14.72,0,0,1,6.9,34.11,14.51,14.51,0,0,1,21.48,19.36C30,19.36,36.43,25.67,36.43,34ZM66.89,16.93a3.32,3.32,0,0,1-2.39,3.19,10.51,10.51,0,0,0-8.59,10.75V51.39a3.29,3.29,0,0,1-6.57,0v-34a3.29,3.29,0,1,1,6.57,0v.39a11.15,11.15,0,0,1,6.91-4.12l.08,0H63a3,3,0,0,1,.52-.05A3.35,3.35,0,0,1,66.89,16.93Zm303.14,0a3.32,3.32,0,0,1-2.39,3.19,10.5,10.5,0,0,0-8.58,10.75V51.39a3.29,3.29,0,0,1-6.58,0v-34a3.29,3.29,0,0,1,6.58,0v.39a11.15,11.15,0,0,1,6.9-4.12l.08,0h.12a3,3,0,0,1,.52-.05A3.35,3.35,0,0,1,370,16.93ZM83,5.43a1.19,1.19,0,0,1-1.2,1.2H80.46l1,1a1.2,1.2,0,1,1-1.69,1.69l-1-1V9.67a1.2,1.2,0,0,1-2.4,0V8.36l-.91.91a1.2,1.2,0,0,1-1.7,0,1.19,1.19,0,0,1,0-1.69l1-1H73.31a1.2,1.2,0,1,1,0-2.39h1.37l-1-1a1.2,1.2,0,0,1,0-1.7,1.22,1.22,0,0,1,1.7,0l.91.92V1.2a1.2,1.2,0,0,1,2.4,0V2.57l1-1a1.2,1.2,0,1,1,1.69,1.7l-1,1h1.31A1.19,1.19,0,0,1,83,5.43Zm42.81,8A3.56,3.56,0,0,0,122.53,17v1.53a18.26,18.26,0,0,0-14-6.14,21.28,21.28,0,0,0-21.11,21.4,21.07,21.07,0,0,0,21.11,21,18.41,18.41,0,0,0,14-6v.76c0,8-5.1,13.13-13,13.13a13.75,13.75,0,0,1-11.76-5.8,3.37,3.37,0,0,0-3.86-1.25h0a3.4,3.4,0,0,0-1.67,5.22c3.85,5.18,10,8.2,17.36,8.2,9.85,0,19.78-6.25,19.78-20.2v-32A3.43,3.43,0,0,0,125.78,13.38Zm-17.3,35A14.52,14.52,0,0,1,94.23,33.65c0-8.07,6.49-14.89,14.18-14.89a14.67,14.67,0,0,1,14.4,14.89A14.56,14.56,0,0,1,108.48,48.4Z" style="fill:#26508c"/></svg>